# xmcd
#
# Track frame offsets: 
#        150
#        17020
#        30477
#        46067
#        55388
#        70987
#        88321
#        104552
#        125755
#        138794
#        153673
#        166042
#        178985
#        196690
#
# Disc length: 2834 seconds
#
# Revision: 0
# Processed by: cddbd v1.5.2PL0 Copyright (c) Steve Scherf et al.
# Submitted via: ExactAudioCopy v1.0b1
#
DISCID=be0b100e
DTITLE=Rodrigues Viola and Henrique - Rei Da Arena
DYEAR=1900
DGENRE=Country
TTITLE0=Prêmio da Natureza
TTITLE1=Anjo Matogrossense
TTITLE2=Entre o Rodeio e Você
TTITLE3=Rodeio de Barretos
TTITLE4=Janela da Vida
TTITLE5=Tô Fora do Ninho
TTITLE6=Paixão Desenfreada
TTITLE7=Rei da Arena
TTITLE8=Cavalo Preto
TTITLE9=Caçador do Ivinhema
TTITLE10=Rei dos Pirangueiros
TTITLE11=Paixão Dupla
TTITLE12=Velho Peão
TTITLE13=Choro Sertanejo
EXTD=
EXTT0=
EXTT1=
EXTT2=
EXTT3=
EXTT4=
EXTT5=
EXTT6=
EXTT7=
EXTT8=
EXTT9=
EXTT10=
EXTT11=
EXTT12=
EXTT13=
PLAYORDER=
